<?xml version="1.0" encoding="iso-8859-1"?>
<!-- Generator: Adobe Illustrator 19.0.0, SVG Export Plug-In . SVG Version: 6.00 Build 0)  -->
<svg version="1.1" id="Layer_1" xmlns="http://www.w3.org/2000/svg" xmlns:xlink="http://www.w3.org/1999/xlink" x="0px" y="0px"
	 viewBox="0 0 512.477 512.477" style="enable-background:new 0 0 512.477 512.477;" xml:space="preserve">
<g transform="translate(1 1)">
	<g>
		<g>
			<path d="M510.646,366.172c-1.707-10.24-8.533-19.627-17.067-26.453L290.486,186.087v-44.342c0-12.8-10.24-23.04-23.04-23.04
				h-3.413v-17.92c23.893-4.267,42.667-24.747,42.667-50.347c0-28.16-23.04-51.2-51.2-51.2c-28.16,0-51.2,23.04-51.2,51.2
				c0,5.12,3.413,8.533,8.533,8.533c5.12,0,8.533-3.413,8.533-8.533c0-18.773,15.36-34.133,34.133-34.133
				c18.773,0,34.133,15.36,34.133,34.133s-15.36,34.133-34.133,34.133c-5.12,0-8.533,4.267-8.533,9.387v24.747h-2.56
				c-12.8,0-23.04,10.24-23.04,23.04v43.051l-204.8,154.923c-9.387,6.827-15.36,16.213-17.067,26.453
				c-1.707,12.8,0.853,25.6,9.387,35.84c8.533,9.387,20.48,15.36,33.28,15.36h76.8v73.387c0,11.093,9.387,20.48,20.48,20.48h232.107
				c11.093,0,20.48-9.387,20.48-20.48v-73.387h76.8c12.8,0,24.747-5.973,32.427-15.36
				C509.793,391.772,513.206,378.972,510.646,366.172z M237.579,141.745c0-3.413,2.56-5.973,5.973-5.973h7.912
				c1.169,0.55,2.525,0.853,4.035,0.853c1.366,0,2.605-0.311,3.695-0.853h7.398c3.413,0,5.973,2.56,5.973,5.973v30.72l-9.387-7.68
				c-2.175-1.74-5.016-2.588-7.956-2.554c-0.83-0.011-1.659,0.073-2.477,0.241c-2.013,0.362-4,1.126-5.78,2.313l-9.387,7.68V141.745
				z M371.552,340.572H139.446c-11.093,0-20.48,9.387-20.48,20.48v5.12h-51.2l187.733-142.507l187.733,142.507h-51.2v-5.12
				C392.032,349.959,382.646,340.572,371.552,340.572z M374.966,451.505h-34.133c-5.12,0-8.533,3.413-8.533,8.533
				c0,5.12,3.413,8.533,8.533,8.533h34.133v22.187c0,1.707-1.707,3.413-3.413,3.413H139.446c-1.707,0-3.413-1.707-3.413-3.413
				v-22.187h34.133c5.12,0,8.533-3.413,8.533-8.533c0-5.12-3.413-8.533-8.533-8.533h-34.133v-34.133v-56.32
				c0-1.707,1.707-3.413,3.413-3.413h232.107c1.707,0,3.413,1.707,3.413,3.413v56.32V451.505z M488.459,390.919
				c-5.12,5.973-11.947,9.387-19.627,9.387h-76.8v-17.067h76.8h5.973l3.413-12.8l-219.307-166.4h-6.827l-212.48,161.28
				c-3.413,2.56-5.12,6.827-3.413,11.093s5.12,6.827,9.387,6.827h73.387v17.067h-76.8c-7.68,0-14.507-3.413-19.627-9.387
				c-5.12-5.973-6.827-13.653-5.12-21.333c0.853-5.973,4.267-11.947,10.24-16.213l202.71-153.361l25.549-18.695l227.42,172.056
				c5.12,4.267,9.387,10.24,10.24,16.213C495.286,377.265,493.579,384.945,488.459,390.919z"/>
			<path d="M298.166,451.505h-76.8c-5.12,0-8.533,3.413-8.533,8.533c0,5.12,3.413,8.533,8.533,8.533h76.8
				c5.12,0,8.533-3.413,8.533-8.533C306.699,454.919,303.286,451.505,298.166,451.505z"/>
		</g>
	</g>
</g>
<g>
</g>
<g>
</g>
<g>
</g>
<g>
</g>
<g>
</g>
<g>
</g>
<g>
</g>
<g>
</g>
<g>
</g>
<g>
</g>
<g>
</g>
<g>
</g>
<g>
</g>
<g>
</g>
<g>
</g>
</svg>
