<?xml version="1.0" encoding="utf-8"?>

<svg version="1.1" id="Icons" xmlns="http://www.w3.org/2000/svg" xmlns:xlink="http://www.w3.org/1999/xlink" x="0px" y="0px"
	 viewBox="0 0 32 32" style="enable-background:new 0 0 32 32;" xml:space="preserve">
<style type="text/css">
	.st0{fill:none;stroke:#000000;stroke-width:2;stroke-linecap:round;stroke-linejoin:round;stroke-miterlimit:10;}
	.st1{fill:none;stroke:#000000;stroke-width:2;stroke-linejoin:round;stroke-miterlimit:10;}
</style>
<path class="st0" d="M23,17L9.3,17C6,17,3.1,19.5,3,22.8C2.9,26.2,5.6,29,9,29c2.6,0,4.8-1.7,5.7-4c0.2-0.6,0.7-1,1.3-1h0
	c0.6,0,1.1,0.4,1.3,1c0.9,2.6,3.6,4.4,6.6,4c2.6-0.4,4.7-2.6,5-5.2C29.4,20.1,26.6,17,23,17z"/>
<line class="st0" x1="9" y1="21" x2="9" y2="25"/>
<line class="st0" x1="7" y1="23" x2="11" y2="23"/>
<path class="st0" d="M15,13v-1c0-1.1,0.9-2,2-2h2c1.1,0,2-0.9,2-2v0c0-1.1-0.9-2-2-2h-2c-1.1,0-2-0.9-2-2V2"/>
<line class="st0" x1="13" y1="13" x2="17" y2="13"/>
<line class="st0" x1="23" y1="21" x2="23" y2="21"/>
<line class="st0" x1="23" y1="25" x2="23" y2="25"/>
<line class="st0" x1="21" y1="23" x2="21" y2="23"/>
<line class="st0" x1="25" y1="23" x2="25" y2="23"/>
</svg>
